<svg id="Layer_1" data-name="Layer 1" xmlns="http://www.w3.org/2000/svg" xmlns:xlink="http://www.w3.org/1999/xlink" viewBox="0 0 1217.14 603"><defs><style>.cls-1,.cls-10,.cls-11,.cls-13,.cls-17,.cls-23,.cls-3,.cls-4,.cls-6,.cls-7,.cls-8{fill:none;}.cls-1{stroke:#9e9e9e;}.cls-1,.cls-10,.cls-11,.cls-12,.cls-13,.cls-14,.cls-15,.cls-17,.cls-19,.cls-2,.cls-20,.cls-22,.cls-23,.cls-3,.cls-4,.cls-6,.cls-7,.cls-8,.cls-9{stroke-miterlimit:10;}.cls-1,.cls-23,.cls-3,.cls-4{stroke-width:12px;}.cls-2{fill:#8e8e8e;}.cls-12,.cls-13,.cls-19,.cls-2,.cls-20,.cls-22,.cls-3{stroke:#000;}.cls-19,.cls-2,.cls-20{stroke-width:3px;}.cls-4{stroke:#adadad;}.cls-12,.cls-5{fill:#666;}.cls-6{stroke:#895100;stroke-width:8px;}.cls-7{stroke:#3d3d3d;}.cls-22,.cls-7,.cls-8{stroke-width:4px;}.cls-8{stroke:#005600;}.cls-15,.cls-22,.cls-9{fill:#fff;}.cls-10,.cls-9{stroke:#828282;}.cls-10,.cls-11,.cls-14,.cls-17,.cls-9{stroke-width:2px;}.cls-11{stroke:#565656;}.cls-14{fill:#999;}.cls-14,.cls-15,.cls-17{stroke:#020202;}.cls-16{fill:#b7b7b7;}.cls-18{fill:#020202;}.cls-19{fill:#adadad;}.cls-20{fill:#a0a0a0;}.cls-21{fill:#b5b5b5;}.cls-23{stroke:#bcbcbc;}.cls-24{fill:#442700;}</style></defs><line class="cls-1" x1="6.25" y1="233.96" x2="6.25" y2="107.14"/><polygon class="cls-2" points="869.26 520.85 869.26 406.48 932.96 406.48 932.96 595.52 650.59 595.52 652.37 520.85 869.26 520.85"/><path class="cls-3" d="M145.67,316.44c.24,22.77.3,45.25.2,68.06q-.06,13.22-.2,26.61" transform="translate(-139.67 -83)"/><line class="cls-3" x1="313.7" y1="301.5" x2="6.2" y2="301.5"/><polyline class="cls-3" points="405.85 301.5 421.85 301.5 421.85 306.04 433.7 323.52"/><line class="cls-3" x1="421.85" y1="301.5" x2="421.85" y2="6"/><line class="cls-4" x1="1068.67" y1="552.85" x2="1068.67" y2="487.97"/><line class="cls-3" x1="762.44" y1="248.11" x2="762.44" y2="6"/><rect class="cls-5" x="762.44" y="354.04" width="170.52" height="47.11"/><polyline class="cls-3" points="762.44 342.48 762.44 359.67 740.96 359.67"/><line class="cls-4" x1="935.04" y1="360.67" x2="1068.67" y2="360.67"/><polyline class="cls-3" points="935.04 354.04 935.04 403.81 762.44 403.81 762.44 359.67"/><line class="cls-4" x1="935.04" y1="552.85" x2="935.04" y2="426.04"/><line class="cls-3" x1="935.04" y1="403.81" x2="935.04" y2="430.19"/><line class="cls-3" x1="935.04" y1="552.85" x2="935.04" y2="597"/><line class="cls-3" x1="1068.67" y1="552.85" x2="1068.67" y2="597"/><polyline class="cls-3" points="1068.67 492.41 1068.67 359.67 1086.74 359.67"/><line class="cls-3" x1="1147.18" y1="359.67" x2="1211.14" y2="359.67"/><line class="cls-6" x1="500.33" y1="429.28" x2="431.22" y2="322.95"/><polyline class="cls-3" points="663.55 359.67 648 359.67 648 597"/><line class="cls-3" x1="498.44" y1="455" x2="648" y2="455"/><line class="cls-3" x1="518.44" y1="455" x2="498.44" y2="427.44"/><line class="cls-7" x1="198.15" y1="489.15" x2="422.44" y2="489.15"/><line class="cls-7" x1="323.78" y1="597" x2="323.78" y2="489.15"/><line class="cls-7" x1="202.59" y1="489.15" x2="202.59" y2="597"/><line class="cls-7" x1="217.41" y1="489.15" x2="217.41" y2="597"/><line class="cls-7" x1="231.93" y1="489.15" x2="231.93" y2="597"/><line class="cls-7" x1="247.33" y1="489.15" x2="247.33" y2="597"/><line class="cls-7" x1="262.74" y1="489.15" x2="262.74" y2="597"/><line class="cls-7" x1="278.74" y1="489.15" x2="278.74" y2="597"/><line class="cls-7" x1="292.67" y1="489.15" x2="292.67" y2="597"/><line class="cls-7" x1="308.07" y1="489.15" x2="308.07" y2="597"/><line class="cls-7" x1="325.26" y1="490.63" x2="372.96" y2="595.52"/><line class="cls-7" x1="420.67" y1="595.52" x2="325.26" y2="490.63"/><line class="cls-7" x1="325.26" y1="490.63" x2="420.67" y2="530.63"/><line class="cls-8" x1="250.89" y1="537.44" x2="291.48" y2="506.04"/><polyline class="cls-8" points="370 489.15 370 537.44 250.89 537.44"/><line class="cls-8" x1="250.89" y1="537.44" x2="290.59" y2="572.7"/><line class="cls-1" x1="422.44" y1="578.04" x2="422.44" y2="530.63"/><path class="cls-3" d="M146,651.37V680H1348c5-178,2-355,1-533,0-19,1-39,0-58H146c0,36,0,72-.33,107.78" transform="translate(-139.67 -83)"/><line class="cls-3" x1="422.44" y1="597" x2="422.44" y2="565.67"/><polyline class="cls-3" points="438.44 455 422.44 455 422.44 533.44"/><path class="cls-9" d="M1021.86,526.1c1.59-2,38.07-1.86,40.14,0,1.71,1.53,1.55,48.2,0,52-1.47,3.63-37.28,2.29-40.14,0S1019.82,528.63,1021.86,526.1Z" transform="translate(-139.67 -83)"/><path class="cls-10" d="M1025.89,530.76c1.24-1.59,29.65-1.5,31.27,0,1.33,1.23,1.21,38.8,0,41.87-1.15,2.91-29,1.84-31.27,0S1024.3,532.79,1025.89,530.76Z" transform="translate(-139.67 -83)"/><path d="M1060.23,552.31a2.2,2.2,0,0,0-.29-.69,3,3,0,0,0-.89-.91,2.61,2.61,0,0,0-.74-.34l-.15,0a2.18,2.18,0,0,0-.83-.19,2.08,2.08,0,0,0-.55.07l-.76-.79a.45.45,0,0,0-.19-.11l.08-.07a.5.5,0,0,0,0-.7.51.51,0,0,0-.71,0l-.31.26a5.38,5.38,0,0,1-1.14.66.52.52,0,0,0-.23.3.5.5,0,0,0,.35.62l.13,0a.66.66,0,0,0,.25-.07,6.45,6.45,0,0,0,.93-.51.51.51,0,0,0,.13.31l.46.47a2.26,2.26,0,0,0-.38.25,1.53,1.53,0,0,0-.51.56,1.36,1.36,0,0,0-.2.54l-8.65.36a1.35,1.35,0,0,0-.37-.43,3.4,3.4,0,0,0-1.39-.61,2.4,2.4,0,0,0-2,.32,2.36,2.36,0,0,0-.45,1.88c0,.51,0,1,0,1.53a1.54,1.54,0,0,0,.44,1.07,1.63,1.63,0,0,0,1.11.43,3.18,3.18,0,0,0,1.66-.72l.65-.41a4.1,4.1,0,0,0,.68-.5,1.59,1.59,0,0,0,.37-.59l8.59-.36.1.2a2.52,2.52,0,0,0,.44.59c.06.06.14.11.21.17s-.08.16-.13.24l-.08.1,0,0-.14.15-.11-.12a2.12,2.12,0,0,0-.56-.33,1.24,1.24,0,0,0-.66,0,.47.47,0,0,0-.3.23.46.46,0,0,0,0,.38.5.5,0,0,0,.23.3.52.52,0,0,0,.37,0h0l.08,0,.13.08a.86.86,0,0,1,.13.14.52.52,0,0,0,.06.28.49.49,0,0,0,.34.23.58.58,0,0,0,.27.2h0a.94.94,0,0,0,.09.12,2.14,2.14,0,0,0,.57.46.59.59,0,0,0,.39,0,.62.62,0,0,0,.3-.23.51.51,0,0,0-.18-.69l-.17-.1a2.08,2.08,0,0,1-.21-.21l-.1-.17a.79.79,0,0,1,1.28-.61,2.63,2.63,0,0,0,2.61-1.87A2.6,2.6,0,0,0,1060.23,552.31Z" transform="translate(-139.67 -83)"/><path class="cls-10" d="M1263.74,564.88c-1.24,1.59-29.65,1.5-31.27,0-1.33-1.23-1.21-38.8,0-41.87,1.15-2.91,29-1.84,31.27,0S1265.33,562.85,1263.74,564.88Z" transform="translate(-139.67 -83)"/><path class="cls-10" d="M1267.77,569.54c-1.59,2-38.07,1.86-40.14,0-1.71-1.53-1.55-48.2,0-52,1.47-3.62,37.28-2.29,40.14,0S1269.81,567,1267.77,569.54Z" transform="translate(-139.67 -83)"/><path d="M1229.4,543.33a2.2,2.2,0,0,0,.29.69,3,3,0,0,0,.89.91,2.61,2.61,0,0,0,.74.34l.15,0a2.18,2.18,0,0,0,.83.19,2.08,2.08,0,0,0,.55-.07l.76.79a.45.45,0,0,0,.19.11l-.08.07a.5.5,0,0,0,0,.7.51.51,0,0,0,.71,0l.31-.26a5.38,5.38,0,0,1,1.14-.66.5.5,0,0,0,.23-.3.5.5,0,0,0-.35-.62h-.13a.58.58,0,0,0-.26.06,6.91,6.91,0,0,0-.92.51.53.53,0,0,0-.13-.31l-.46-.47a2.26,2.26,0,0,0,.38-.25,1.53,1.53,0,0,0,.51-.56,1.36,1.36,0,0,0,.2-.54l8.65-.36a1.35,1.35,0,0,0,.37.43,3.4,3.4,0,0,0,1.39.61,2.4,2.4,0,0,0,2-.32,2.36,2.36,0,0,0,.45-1.88c0-.51,0-1,0-1.52a1.55,1.55,0,0,0-.44-1.08,1.73,1.73,0,0,0-1.11-.43,3.18,3.18,0,0,0-1.66.72l-.65.41a4.1,4.1,0,0,0-.68.5,1.59,1.59,0,0,0-.37.59l-8.59.36-.1-.2a2.52,2.52,0,0,0-.44-.59c-.06-.06-.14-.11-.21-.17a1.71,1.71,0,0,1,.13-.23l.08-.11,0,0,.14-.15.11.12a2.12,2.12,0,0,0,.56.33,1.24,1.24,0,0,0,.66,0,.47.47,0,0,0,.3-.23.46.46,0,0,0,0-.38.5.5,0,0,0-.23-.3.59.59,0,0,0-.37,0h0l-.08,0-.13-.08a.86.86,0,0,1-.13-.14.52.52,0,0,0-.06-.28.49.49,0,0,0-.34-.23.58.58,0,0,0-.27-.2h0a.94.94,0,0,0-.09-.12,1.93,1.93,0,0,0-.57-.45.54.54,0,0,0-.39-.06.62.62,0,0,0-.3.23.51.51,0,0,0,.18.69l.17.11a1.34,1.34,0,0,1,.21.2l.1.17a2.85,2.85,0,0,0-.55.74,2.46,2.46,0,0,0-.73-.13,2.63,2.63,0,0,0-2.61,1.87A2.6,2.6,0,0,0,1229.4,543.33Z" transform="translate(-139.67 -83)"/><path class="cls-10" d="M1251.1,649.82c-.74,1.45-17.68,1.37-18.64,0-.8-1.13-.72-35.64,0-38.46s17.31-1.69,18.64,0S1252.05,648,1251.1,649.82Z" transform="translate(-139.67 -83)"/><path class="cls-10" d="M1252,617.93s18.37-.63,24.45,0a16,16,0,0,1,12.66,7.77c3.41,5.86.54,12.78-2.29,15.49-1.83,1.74-6.15,3.25-9.34,3.85s-25.85.28-25.85.28" transform="translate(-139.67 -83)"/><path class="cls-11" d="M1248.26,613.63v6.15" transform="translate(-139.67 -83)"/><path class="cls-10" d="M766.47,635.23c1.45.74,1.37,17.68,0,18.64-1.13.8-35.64.72-38.46,0s-1.69-17.31,0-18.64S764.6,634.28,766.47,635.23Z" transform="translate(-139.67 -83)"/><path class="cls-10" d="M734.58,634.37s-.63-18.37,0-24.45a16,16,0,0,1,7.77-12.66c5.86-3.41,12.78-.54,15.48,2.29,1.75,1.83,3.26,6.15,3.86,9.34s.28,25.85.28,25.85" transform="translate(-139.67 -83)"/><path class="cls-11" d="M730.28,638.07h6.15" transform="translate(-139.67 -83)"/><polygon class="cls-12" points="845.41 573.3 777.55 573.3 777.55 544.41 777.55 534.04 845.41 534.04 845.41 573.3"/><line class="cls-13" x1="845.41" y1="544.41" x2="777.56" y2="544.41"/><path d="M940.61,623.31h-.21c.1-1.43-.68-3-2.26-3.11a.52.52,0,0,0-.18,0,2.15,2.15,0,0,0-1.52-.07,3.54,3.54,0,0,0-1.58,1.2,4.7,4.7,0,0,0-1,1.69h-.15c-.65,0-.65,1,0,1h.13a1.81,1.81,0,0,0,.46.86,6.53,6.53,0,0,0,2.37,1.22.53.53,0,0,0,.84.16,3,3,0,0,0,.73,0,2.62,2.62,0,0,0,1.54-1.13,3.09,3.09,0,0,0,.43-.85l.41,0C941.25,624.33,941.25,623.33,940.61,623.31Zm-1.2-.12s0,0,0,.07l-1.84-.08c0-.67,0-1.34.05-2a.8.8,0,0,1,.16.08.47.47,0,0,0,.54,0C939.14,621.39,939.45,622.43,939.41,623.19Zm-4-.91a3.63,3.63,0,0,1,1.22-1.11c0,.66-.05,1.31-.05,2l-1.66-.06A3.81,3.81,0,0,1,935.39,622.28Zm0,2.22a1.7,1.7,0,0,1-.49-.42l1.64.06c0,.3,0,.6,0,.9A5.17,5.17,0,0,1,935.42,624.5Zm2.79.73a1.13,1.13,0,0,1-.61.06c0-.37,0-.74,0-1.11l1.56.07A1.92,1.92,0,0,1,938.21,625.23Z" transform="translate(-139.67 -83)"/><path d="M969.54,622.48a1.69,1.69,0,0,0-.71-1.46,2.15,2.15,0,0,0-1.31-.72l-.24,0a.48.48,0,0,0-.37-.19.52.52,0,0,0-.37.17,3.14,3.14,0,0,0-.92.12,2,2,0,0,0-1.17,1.15,3.36,3.36,0,0,0-.42,1.77,2.47,2.47,0,0,0,.86,1.49,4.86,4.86,0,0,0,1.51,1l.36.1a.5.5,0,0,0,.93,0,2.21,2.21,0,0,0,.5-.15,2.34,2.34,0,0,0,1.08-1.24A5.24,5.24,0,0,0,969.54,622.48Zm-1.65-1a.48.48,0,0,0,.33.33.39.39,0,0,0,.16.1,1,1,0,0,1,.16.67l-1,.07c0-.45,0-.9-.08-1.35A1.14,1.14,0,0,1,967.89,621.49Zm-2.16-.06a1,1,0,0,1,.53-.16h.19c0,.48,0,1,.08,1.45l-1.49.09a3.47,3.47,0,0,1,.19-.57A1.79,1.79,0,0,1,965.73,621.43Zm.1,2.86a4.7,4.7,0,0,1-.51-.49l1.27-.08c0,.37,0,.74.07,1.11A3.2,3.2,0,0,1,965.83,624.29Zm2.06.53a1.13,1.13,0,0,1-.22.11c0-.42,0-.85-.08-1.28l.89-.06a3,3,0,0,1-.08.43A1.46,1.46,0,0,1,967.89,624.82Z" transform="translate(-139.67 -83)"/><path d="M983.72,618.4q-12.72-.36-25.46-.49t-25.58,0q-7.17.06-14.35.2c-.64,0-.64,1,0,1q12.74-.24,25.46-.25t25.58.22q7.17.13,14.35.34C984.36,619.42,984.36,618.42,983.72,618.4Z" transform="translate(-139.67 -83)"/><path d="M970.73,639.12a5.07,5.07,0,0,0-2.32-1.82,6.08,6.08,0,0,0-3.18-.36c-1.89.42-3.08,2.48-3.65,4.16a8.35,8.35,0,0,0-.54,3.49,3.21,3.21,0,0,0,1.88,2.53c2.24,1.19,4.82.59,7.12-.09a.5.5,0,0,0-.27-1,11.26,11.26,0,0,1-4.7.7c-1.33-.17-3-.87-3.05-2.4a8.46,8.46,0,0,1,1.08-4.28,5.32,5.32,0,0,1,1.22-1.53,2.68,2.68,0,0,1,2.17-.64,5,5,0,0,1,2.14.58,4.57,4.57,0,0,1,1.52,1.54,6.47,6.47,0,0,1,.55.91,1.77,1.77,0,0,1,.09,1.18,3.16,3.16,0,0,1-.81,1.67,4.23,4.23,0,0,1-1.92.85,4.81,4.81,0,0,1-2.32.17c-.63-.13-1.46-.46-1.6-1.16a3.65,3.65,0,0,1,.3-2.21,1.91,1.91,0,0,1,2-1,1.55,1.55,0,0,1,1.61,1.27,1.39,1.39,0,0,1-1.3,1.55c-.32,0-.82-.07-.92-.43a.85.85,0,0,1,.59-1c.63-.06.64-1.06,0-1a1.79,1.79,0,0,0-1.6,1.83,1.68,1.68,0,0,0,1.85,1.64,2.4,2.4,0,0,0,1.81-3.94,3.14,3.14,0,0,0-4.87.54,4.73,4.73,0,0,0-.45,3,2.56,2.56,0,0,0,1.84,1.79,5.29,5.29,0,0,0,3.15,0,5.09,5.09,0,0,0,2.63-1.25,4.3,4.3,0,0,0,1-2.5A4,4,0,0,0,970.73,639.12Z" transform="translate(-139.67 -83)"/><circle class="cls-13" cx="826.31" cy="559.25" r="6.97"/><path d="M944.1,638.15a7.06,7.06,0,0,0-3.19-2.5,8.33,8.33,0,0,0-4.36-.49c-2.59.57-4.22,3.4-5,5.7a11.68,11.68,0,0,0-.73,4.79,4.42,4.42,0,0,0,2.57,3.47c3.08,1.62,6.61.81,9.76-.13.84-.26.49-1.58-.36-1.33a15.81,15.81,0,0,1-6.45,1c-1.82-.24-4.07-1.2-4.17-3.29a11.55,11.55,0,0,1,1.47-5.86,7.6,7.6,0,0,1,1.67-2.11,3.73,3.73,0,0,1,3-.87,7,7,0,0,1,2.94.79,6.48,6.48,0,0,1,2.09,2.11,11.17,11.17,0,0,1,.75,1.25,2.5,2.5,0,0,1,.12,1.62,4.37,4.37,0,0,1-1.11,2.29,6,6,0,0,1-2.63,1.17,6.73,6.73,0,0,1-3.18.23c-.86-.19-2-.63-2.19-1.6a5,5,0,0,1,.41-3,2.62,2.62,0,0,1,2.74-1.36,2.12,2.12,0,0,1,2.21,1.74,1.91,1.91,0,0,1-1.79,2.13c-.44,0-1.11-.1-1.26-.59s.21-1.37.81-1.43c.87-.08.88-1.45,0-1.37A2.45,2.45,0,0,0,936,643a2.32,2.32,0,0,0,2.54,2.26,3.29,3.29,0,0,0,2.47-5.4,4.29,4.29,0,0,0-6.66.73,6.44,6.44,0,0,0-.63,4.09,3.54,3.54,0,0,0,2.52,2.45,7.31,7.31,0,0,0,4.32,0,7.08,7.08,0,0,0,3.61-1.72,6,6,0,0,0,1.43-3.43A5.48,5.48,0,0,0,944.1,638.15Z" transform="translate(-139.67 -83)"/><circle class="cls-13" cx="797.9" cy="559.44" r="9.56"/><rect class="cls-14" x="675.83" y="537.39" width="62.94" height="38.61"/><rect class="cls-15" x="677.22" y="541.89" width="41.89" height="30.44"/><polyline class="cls-16" points="690.44 542.33 699 542.33 677.22 561.4 677.22 553.67"/><polyline class="cls-16" points="719.11 541.89 689.44 572.33 677.22 572.33 709.55 541.89"/><polyline class="cls-16" points="719.11 549.78 697.44 572.33 691 572.33 719.11 543.67"/><rect class="cls-17" x="676.83" y="541.89" width="41.89" height="30.44"/><path class="cls-18" d="M875.36,625a3.48,3.48,0,0,0-2.45-3.07,8.19,8.19,0,0,0-4.16.33,7,7,0,0,0-2.49,1.24c-.68.54-1.25,1.2-1.92,1.74-1.62,1.31-3.7,1.13-5.65.92-.59-.06-.62.77-.14,1a1,1,0,0,0-.2.16,2.56,2.56,0,0,0-.48,2.1c.2,2,.44,4.06.66,6.09a.5.5,0,0,0,.63.48,21.25,21.25,0,0,1,3-.24,9.45,9.45,0,0,1,2.76.18c.78.24,1.12,1,1.7,1.51a4.44,4.44,0,0,0,1.85.93,9.63,9.63,0,0,0,2,.27,5.89,5.89,0,0,0,2.54-.24,4.05,4.05,0,0,0,2.19-2.74,18.66,18.66,0,0,0,.57-5A30.35,30.35,0,0,0,875.36,625Z" transform="translate(-139.67 -83)"/><path class="cls-18" d="M870.89,649.94c-3.22,0-3.22,5,0,5S874.11,649.94,870.89,649.94Z" transform="translate(-139.67 -83)"/><path class="cls-18" d="M872.26,641.11a1.63,1.63,0,0,0-.44-1.06,1.56,1.56,0,0,0-1.06-.44,1.54,1.54,0,0,0-1.06.44,1.47,1.47,0,0,0-.44,1.06,16.94,16.94,0,0,1-.08,3.56v.05a1.67,1.67,0,0,0,.15,1.16,1.52,1.52,0,0,0,.9.69,1.54,1.54,0,0,0,1.15-.15,1.42,1.42,0,0,0,.69-.9A18.6,18.6,0,0,0,872.26,641.11Z" transform="translate(-139.67 -83)"/><path class="cls-18" d="M865.2,647a17.75,17.75,0,0,1,.06-5,1.53,1.53,0,0,0-1-1.84,1.5,1.5,0,0,0-1.84,1,20.45,20.45,0,0,0-.19,5.58c.2,1.77.72,3.51.78,5.27a1.5,1.5,0,1,0,3,0A50.8,50.8,0,0,0,865.2,647Z" transform="translate(-139.67 -83)"/><rect class="cls-19" x="31.33" y="30.33" width="48.67" height="48.67"/><rect class="cls-19" x="442.89" y="37" width="42" height="42"/><rect class="cls-20" x="1031.93" y="101.73" width="146.96" height="124.15"/><path class="cls-21" d="M1261.89,231.68c-2.86-1.46-6-2.1-9.09-2.94a34.69,34.69,0,0,1-8.42-3.44,35.08,35.08,0,0,1-12.73-12.56,1.52,1.52,0,0,0-2.59,0l-2.14,3.15a1.29,1.29,0,0,0,.39,1.89,30.5,30.5,0,0,1-5.53,13.45c-.54.75-1.13,1.46-1.74,2.15a1.19,1.19,0,0,0-1.48.05c-6.57,4.91-15.25,4.11-22.82,2.54-1.68-.35-3.44-.29-4.38,1.37a6.45,6.45,0,0,0-.28,4.52,40.08,40.08,0,0,1,1,13.67c-.63,5.24-3,10.09-3.42,15.36a1.51,1.51,0,0,0,1.11,1.45c8.76,1.78,17.56-1.45,26.39-.28a44,44,0,0,1,6.5,1.47c1.72.52,3.63.69,4.93-.81s1.35-3.75,1.72-5.48c.49-2.26,1-4.53,1.48-6.79a1.53,1.53,0,0,0,0-.52c2.05,1.45,4.16,3.18,5.12,5.56.84,2.08,1.19,4.78,3.88,5.19,2.91.44,4.63-2.39,5-4.87.4-2.95.7-5.66,2-8.39,2.64-5.51,7.16-9.7,11.73-13.62l3.45-2.94a18.37,18.37,0,0,0,3.29-3.12C1267.19,235,1264.11,232.82,1261.89,231.68Z" transform="translate(-139.67 -83)"/><path d="M1251.71,236.77a22.13,22.13,0,0,1-15.38-9.7,1.43,1.43,0,0,0-1.47-.66,1.57,1.57,0,0,0-2.68.49c-2.09,6.48-4.8,14.4-12,16.63a1.51,1.51,0,0,0,0,2.89c3.77,1.15,7.77,2.31,10.83,4.92a11.93,11.93,0,0,1,3.24,4.24c.66,1.46,1.3,2.74,2.92,3.26a1.51,1.51,0,0,0,1.9-1.44,23.09,23.09,0,0,1,1.18-6.91,9.41,9.41,0,0,1,3.91-4.45c3.1-2,6.88-3.49,8.47-7.06C1253,238.21,1252.76,236.93,1251.71,236.77ZM1241,244.61c-2.85,2.25-4,5.41-4.53,8.77a10.39,10.39,0,0,0-.78-1.32,16.47,16.47,0,0,0-3.79-3.8,26.73,26.73,0,0,0-7.25-3.56c5.15-3.27,7.83-9.29,9.8-15.1a25.06,25.06,0,0,0,14.4,9.66C1246.78,241.58,1243.38,242.72,1241,244.61Z" transform="translate(-139.67 -83)"/><path d="M1261.89,231.35c-2.86-1.46-6-2.11-9.09-2.94a34.81,34.81,0,0,1-21.15-16,1.52,1.52,0,0,0-2.59,0l-2.14,3.15a1.29,1.29,0,0,0,.39,1.89,30.54,30.54,0,0,1-5.53,13.45c-.54.75-1.13,1.46-1.74,2.15a1.16,1.16,0,0,0-1.48,0c-6.57,4.91-15.25,4.11-22.82,2.54-1.68-.35-3.44-.3-4.38,1.37a6.45,6.45,0,0,0-.28,4.52,40.08,40.08,0,0,1,1,13.67c-.63,5.24-3,10.09-3.42,15.36a1.49,1.49,0,0,0,1.11,1.44c8.76,1.79,17.56-1.45,26.39-.27a44,44,0,0,1,6.5,1.47c1.72.51,3.63.69,4.93-.81s1.35-3.75,1.72-5.49c.49-2.26,1-4.52,1.48-6.78a1.59,1.59,0,0,0,0-.53c2.05,1.45,4.16,3.19,5.12,5.57.84,2.07,1.19,4.78,3.88,5.18,2.91.45,4.63-2.38,5-4.86.4-3,.7-5.66,2-8.39,2.64-5.51,7.16-9.7,11.73-13.62l3.45-2.94a18.08,18.08,0,0,0,3.29-3.13C1267.19,234.62,1264.11,232.48,1261.89,231.35Zm-34,28-1.32,6.09c-.2.93-.4,1.87-.61,2.8-.11.51-.2,1.88-.63,2.24s-1.73-.1-2.29-.27c-1-.3-2-.57-3-.79a42.1,42.1,0,0,0-5.82-.86c-7.46-.59-15,1.88-22.4.79.58-4,2.2-7.73,2.9-11.68a38.27,38.27,0,0,0,.09-12.9c-.29-1.77-1.07-3.6-1-5.4,0-.52,0-.88.42-.93a11.39,11.39,0,0,1,2.84.54,44.78,44.78,0,0,0,11.32.8,27.45,27.45,0,0,0,4.34-.7,17.19,17.19,0,0,0-2.49,1.92,8.14,8.14,0,0,0-1,1.24,1.29,1.29,0,0,0-.88-.17c-2.07.26-4.15-.23-6.22.14a5.62,5.62,0,0,0-4.26,3.23,22,22,0,0,0-1.44,12.12,15.71,15.71,0,0,0,2,5.62,4,4,0,0,0,1.85,1.8,10.55,10.55,0,0,0,3.17.43l7.08.55c2.18.18,4.57.59,6.7-.12s3.43-2.45,4.58-4.24a26.83,26.83,0,0,0,2.85-6.12c1.47.91,2.91,1.86,4.32,2.83A1.26,1.26,0,0,0,1227.93,259.32Zm-19.17-12.18c1.14,2.13,3.63,2.85,5.77,3.5a39.46,39.46,0,0,1,7.49,3.27.93.93,0,0,0-.08.2,24,24,0,0,1-2.63,5.76c-1.13,1.82-2.27,3.24-4.55,3.32a60.46,60.46,0,0,1-6.85-.46l-3.78-.29c-.83-.07-2.35.12-2.94-.49a7.43,7.43,0,0,1-1.28-2.69,14.78,14.78,0,0,1-.66-2.93,19.84,19.84,0,0,1,.29-6.1c.34-1.67.65-4.27,2.48-4.94s4.22,0,6.25-.25A4.23,4.23,0,0,0,1208.76,247.14Zm53.79-11.1a8.88,8.88,0,0,1-1.47,1.33L1259.2,239c-4.35,3.71-8.8,7.37-12.2,12a28.68,28.68,0,0,0-3.72,6.78,20.27,20.27,0,0,0-1.06,3.9,31,31,0,0,1-.53,4.22c-.23.73-1,2-1.81,1.16s-.79-2.18-1.16-3.06a14.55,14.55,0,0,0-4.67-5.76c-2-1.61-4.24-3-6.42-4.41a62.81,62.81,0,0,0-7.58-4.29,35.83,35.83,0,0,0-3.87-1.54,25.77,25.77,0,0,1-3.31-1.12c-.72-.35-1.55-.85-1.63-1.73-.1-1,.93-1.94,1.65-2.54,2-1.67,4.4-2.87,6.4-4.61a33.28,33.28,0,0,0,11.18-21.74v-.18a38.61,38.61,0,0,0,22.13,15.36,40.4,40.4,0,0,1,7.6,2.39,15,15,0,0,1,1.56.89,3.18,3.18,0,0,1,.83.61C1262.86,235.76,1262.88,235.57,1262.55,236Z" transform="translate(-139.67 -83)"/><path class="cls-22" d="M1311.08,276.77c.21,5.29.75,10.57,1.28,15.84.18,1.78,1.23,5-1,6.26-2,1.1-5.21.82-7.49.86-6.14.1-12.48,0-18.28-1.71-1.07-.33-2.71-.73-3.21-1.61s-.08-2.45.07-3.46a66.17,66.17,0,0,1,1.77-7.75c2.61-9.5,5.66-19.35.74-28.73-1-1.88-2.81-4.52-2-6.6,1-2.4,5.86-2.33,8.43-2.55a152.43,152.43,0,0,1,20.94-.29c1.72,4.55.17,9.34-.54,14A81.78,81.78,0,0,0,1311.08,276.77Z" transform="translate(-139.67 -83)"/><path class="cls-22" d="M1310.35,219.68c.2,5.27.73,10.53,1.24,15.78.18,1.77,1.2,5-1,6.24-1.93,1.08-5.08.81-7.3.85-6,.1-12.16,0-17.82-1.71-1-.32-2.64-.72-3.13-1.6s-.07-2.44.07-3.44a67.09,67.09,0,0,1,1.73-7.72c2.54-9.46,5.51-19.27.72-28.62-1-1.87-2.74-4.49-1.92-6.56.94-2.4,5.71-2.33,8.22-2.54a146.34,146.34,0,0,1,20.41-.3c1.67,4.54.17,9.31-.53,13.9A83.53,83.53,0,0,0,1310.35,219.68Z" transform="translate(-139.67 -83)"/><line class="cls-23" x1="751.7" y1="216.76" x2="751.7" y2="125.92"/><line class="cls-23" x1="775.56" y1="174.1" x2="775.56" y2="83.26"/><line class="cls-23" x1="409.78" y1="181.17" x2="409.78" y2="90.33"/><line class="cls-6" x1="405.85" y1="301" x2="313.7" y2="301"/><line class="cls-6" x1="740.96" y1="359.67" x2="663.56" y2="359.67"/><line class="cls-6" x1="762.44" y1="342.48" x2="762.44" y2="248.11"/><line class="cls-6" x1="1086.74" y1="359.67" x2="1147.18" y2="359.67"/><path class="cls-24" d="M219.33,219.85c.57-3.14.27-6.5.13-9.68q-.24-5.58-.89-11.14c-.35-3-.38-6.8-1.92-9.49a5.73,5.73,0,0,0-3.16-2.62,5.78,5.78,0,0,0-2.86-5.13c-2.12-1.28-4.9-1.2-7.26-1.43l-16.73-1.65-4.92-.49a7.36,7.36,0,0,0-4.05.39,4.21,4.21,0,0,0-2.35,4.38,4.71,4.71,0,0,0-1.15,1.08c-4,1.44-3.87,6.8-3.86,10.74,0,6.12.09,12.23.1,18.35,0,12.52-.37,25-1,37.51-1.32,25.19-3.38,50.38-2.74,75.63.14,5.38,0,11.15,1.71,16.3,1.14,3.51,3.53,7.72,7.15,8.68a2.66,2.66,0,0,0,2.34,1.81,101.22,101.22,0,0,0,25.44.34c1.79-.21,3.55-.5,4.85-1.94s1.3-3.7,1.31-5.69c0-1.12.09-2.37,0-3.57,3.15-.2,4.28-2,5.05-5,1.51-5.87,2.82-11.9,2.2-18a36.84,36.84,0,0,0-4.24-13.88l.28-.22a8.47,8.47,0,0,0,2-3.69,59.21,59.21,0,0,0,2.72-11.16,64.06,64.06,0,0,0,.68-11.07c-.1-3.5-.32-7.19-1.68-10.44a12.5,12.5,0,0,0-5-5.84,9.17,9.17,0,0,0,.71-.69,23,23,0,0,0,4.32-7.86,37.35,37.35,0,0,0,1.59-18.67,23.63,23.63,0,0,0-3.48-9.55A8.06,8.06,0,0,0,219.33,219.85Zm-37-36.43,3.61.36,7.55.74,7.22.72c2.19.21,4.7.11,6.82.78.28.09.53.24.8.35a.3.3,0,0,1,.21.21,3,3,0,0,1-1.39.57,38.25,38.25,0,0,1-6.85.69c-5,.27-9.91.17-14.87.07a2.64,2.64,0,0,0-.87.15,9.28,9.28,0,0,0-1.18-3.18A5.69,5.69,0,0,0,182,183.4Zm-9.65,156.47c-1.26-4.9-1.09-10.24-1.19-15.28-.45-21.86,1.06-43.69,2.31-65.49.7-12.25,1.32-24.51,1.46-36.78.07-6.12,0-12.24,0-18.35q0-4.59-.05-9.18c0-1.28-.07-2.58,0-3.86,0-.34.29-1.55.33-1.94a2.28,2.28,0,0,0,2.51-1.8s-.5.15,0,0a1.15,1.15,0,0,1,.66.06c.69.27.9,1.19,1,1.87.49,2.33.16,5,.14,7.37q-.08,8.1-.13,16.21-.14,16.63-.26,33.28-.25,33.12-.55,66.23l-.18,16.16c0,2.83-.07,5.67-.11,8.5a46.77,46.77,0,0,1-.24,7.3c-.3,1.72-1.06,2.83-2.67,1.62S173.24,341.93,172.72,339.89Zm31.8,7.76c-.09.31,0,.35,0,.35a1.69,1.69,0,0,0-.39.13c-1.14.5-2.8.37-4,.47-1.43.12-2.86.2-4.29.26a101.65,101.65,0,0,1-13.74-.41,13.71,13.71,0,0,0,1.37-5.47c5.19-2.67,11.21-2,16.76-1.37l3.26.37a2.25,2.25,0,0,0,1,.82v.55c0,.73,0,1.45,0,2.18A8.35,8.35,0,0,1,204.52,347.65Zm5.27-11.8c-.1.4-.35,1.36-.38,1.37s-1.3-.11-1.63-.11c-1.43,0-2.84-.14-4.26-.28-2.62-.25-5.23-.62-7.85-.8a29.31,29.31,0,0,0-12,1.4q.12-7.94.2-15.87c.06-5,.1-10.07.15-15.1a2.37,2.37,0,0,0,1.13.31c7.44.21,14.89.15,22.32-.28a30.61,30.61,0,0,1,4.44,13.31C212.33,325.29,211.14,330.58,209.79,335.85Zm3-62.11a51,51,0,0,1-.43,17.33,59.55,59.55,0,0,1-2.12,8.26,6.09,6.09,0,0,1-.68,1.81c-.23.23-1.27.17-1.43.18-1.54.09-3.07.16-4.61.23q-9.21.36-18.44.09a2.29,2.29,0,0,0-1.08.21q.15-16.94.29-33.88c6-.66,12-1.24,18-2a2.4,2.4,0,0,0,1.32.12C208.45,265.22,212,269.1,212.82,273.74Zm-1.31-20.11c-.81,2.06-1.88,4.37-3.64,5.73-2,1.54-5,1.4-7.39,1.67l-16.12,1.8q.06-8.43.13-16.86.06-8.94.13-17.89h.13l.14,0a2.13,2.13,0,0,0,.58.1l20.9-.58c.94,0,1.9-.08,2.86-.17,3,2.21,4,7.64,4.31,11A32.33,32.33,0,0,1,211.51,253.63Zm2.43-33.17a4.83,4.83,0,0,1-3.71,1.79c-.27-.13-.51-.29-.8-.41a1.9,1.9,0,0,0-2.37.6c-1.8.06-3.61.09-5.41.14l-16.18.45-.07,0a2.27,2.27,0,0,0-.65-.09h-.09q.09-9.83.16-19.66,0-5.12.08-10.24V193a2.12,2.12,0,0,0,.57.08c5.5.11,11,.21,16.48-.18,2.1-.15,5.15-.2,7.59-1.09a2.14,2.14,0,0,0,2.45,0c.7-.42,1.34,4.58,1.41,5.13.37,2.77.65,5.56.86,8.35s.34,5.58.4,8.37C214.71,215.74,215.12,218.63,213.94,220.46Z" transform="translate(-139.67 -83)"/><path class="cls-24" d="M388.7,161.66c3.14.58,6.5.28,9.68.14q5.58-.26,11.14-.89c3-.36,6.8-.39,9.49-1.92a5.76,5.76,0,0,0,2.62-3.16,5.81,5.81,0,0,0,5.13-2.87c1.28-2.12,1.2-4.9,1.43-7.26L429.84,129c.16-1.64.33-3.28.48-4.92a7.27,7.27,0,0,0-.38-4,4.22,4.22,0,0,0-4.38-2.35,4.9,4.9,0,0,0-1.08-1.15c-1.44-4-6.8-3.86-10.74-3.86-6.12,0-12.23.09-18.35.11-12.52,0-25-.37-37.51-1-25.19-1.31-50.38-3.37-75.63-2.73-5.38.13-11.15,0-16.3,1.71-3.51,1.14-7.72,3.53-8.68,7.14a2.67,2.67,0,0,0-1.81,2.34,100.76,100.76,0,0,0-.34,25.44c.21,1.79.5,3.55,1.94,4.85s3.7,1.31,5.69,1.31c1.12,0,2.37.1,3.57,0,.19,3.14,2,4.28,5,5,5.87,1.51,11.9,2.82,18,2.2a36.66,36.66,0,0,0,13.88-4.24,2,2,0,0,0,.22.29,8.56,8.56,0,0,0,3.69,2,59.21,59.21,0,0,0,11.16,2.72,65,65,0,0,0,11.06.69c3.51-.1,7.2-.33,10.45-1.69a12.44,12.44,0,0,0,5.84-5,7.67,7.67,0,0,0,.69.71,22.78,22.78,0,0,0,7.86,4.32,37.35,37.35,0,0,0,18.67,1.59,23.63,23.63,0,0,0,9.55-3.48A8,8,0,0,0,388.7,161.66Zm36.43-36.95-.36,3.61c-.25,2.51-.5,5-.74,7.54l-.72,7.22c-.21,2.2-.11,4.71-.78,6.83-.09.28-.24.52-.35.79s-.14.2-.21.21a2.93,2.93,0,0,1-.57-1.38,38.45,38.45,0,0,1-.69-6.86c-.27-4.95-.17-9.91-.07-14.86a2.66,2.66,0,0,0-.15-.88,9.08,9.08,0,0,0,3.18-1.18,5.85,5.85,0,0,0,1.48-1.41C425.14,124.46,425.14,124.59,425.13,124.71Zm-156.47-9.66c4.9-1.25,10.24-1.08,15.28-1.19,21.86-.45,43.69,1.07,65.49,2.31,12.25.7,24.51,1.32,36.78,1.46,6.12.07,12.24,0,18.35,0q4.59,0,9.18,0c1.28,0,2.58-.08,3.86,0,.34,0,1.55.3,1.94.34a2.27,2.27,0,0,0,1.8,2.5s-.15-.5,0,0a1.15,1.15,0,0,1-.06.66c-.27.69-1.19.9-1.87,1-2.33.5-5,.16-7.37.14l-16.21-.13-33.28-.26q-33.12-.25-66.23-.55-8.09-.07-16.16-.18l-8.51-.11a46.68,46.68,0,0,1-7.29-.23c-1.72-.31-2.83-1.06-1.63-2.68S266.62,115.57,268.66,115.05Zm-7.76,31.81c-.31-.1-.35,0-.35,0a1.73,1.73,0,0,0-.13-.38c-.5-1.15-.37-2.81-.47-4-.12-1.43-.2-2.86-.26-4.29a101.51,101.51,0,0,1,.41-13.73,14.05,14.05,0,0,0,5.47,1.37c2.67,5.18,2,11.2,1.37,16.75-.12,1.08-.25,2.17-.37,3.26a2.3,2.3,0,0,0-.82,1H263A8.35,8.35,0,0,1,260.9,146.86Zm11.8,5.26c-.4-.1-1.36-.35-1.37-.38s.11-1.3.11-1.63c0-1.42.14-2.84.28-4.26.25-2.62.62-5.22.8-7.85a29.33,29.33,0,0,0-1.4-12q7.94.12,15.87.21l15.1.15a2.3,2.3,0,0,0-.31,1.12c-.21,7.44-.15,14.89.28,22.32a30.76,30.76,0,0,1-13.31,4.45C283.26,154.66,278,153.48,272.7,152.12Zm62.11,3a50.7,50.7,0,0,1-17.33-.43,58.17,58.17,0,0,1-8.26-2.12,5.81,5.81,0,0,1-1.81-.67c-.23-.24-.17-1.27-.18-1.44-.09-1.53-.16-3.07-.23-4.61q-.36-9.21-.09-18.44a2.32,2.32,0,0,0-.21-1.08q16.94.17,33.88.29c.66,6,1.24,12,2,18a2.37,2.37,0,0,0-.12,1.31C343.33,150.78,339.45,154.34,334.81,155.15Zm20.11-1.31c-2.06-.81-4.37-1.88-5.73-3.63-1.54-2-1.4-5.05-1.67-7.39l-1.8-16.13,16.86.13,17.89.14s0,.08,0,.12,0,.09,0,.14a2.7,2.7,0,0,0-.09.59L381,148.7c0,.94.08,1.91.17,2.86-2.21,3-7.64,4-11,4.31A32.06,32.06,0,0,1,354.92,153.84Zm33.16,2.43a4.84,4.84,0,0,1-1.78-3.71c.13-.27.29-.51.41-.79a1.91,1.91,0,0,0-.6-2.38c-.06-1.8-.09-3.61-.14-5.41l-.45-16.17a.24.24,0,0,0,0-.08,2.22,2.22,0,0,0,.09-.65V127l19.66.15,10.24.08h.09a2.14,2.14,0,0,0-.08.58c-.11,5.49-.21,11,.18,16.48.15,2.1.2,5.14,1.09,7.58a2.14,2.14,0,0,0,0,2.45c.42.7-4.58,1.34-5.13,1.41-2.77.37-5.56.65-8.35.86s-5.58.35-8.37.41C392.81,157,389.92,157.45,388.08,156.27Z" transform="translate(-139.67 -83)"/><path class="cls-24" d="M785.74,163.86c3.14.57,6.5.27,9.68.13q5.58-.24,11.14-.89c3-.35,6.79-.39,9.48-1.92a5.69,5.69,0,0,0,2.62-3.16,5.77,5.77,0,0,0,5.13-2.87c1.28-2.11,1.2-4.89,1.43-7.25l1.65-16.73c.17-1.64.33-3.28.49-4.93a7.32,7.32,0,0,0-.39-4,4.18,4.18,0,0,0-4.38-2.35,4.36,4.36,0,0,0-1.08-1.15c-1.44-4-6.79-3.87-10.74-3.86-6.11,0-12.23.08-18.35.1-12.51,0-25-.37-37.5-1-25.19-1.32-50.39-3.38-75.64-2.74-5.38.14-11.14,0-16.3,1.71-3.5,1.14-7.71,3.53-8.67,7.14a2.66,2.66,0,0,0-1.81,2.35,100.75,100.75,0,0,0-.34,25.44c.21,1.79.49,3.54,1.93,4.84s3.71,1.31,5.69,1.31c1.12,0,2.37.1,3.57,0,.2,3.14,2,4.28,5,5.05,5.88,1.5,11.9,2.82,18,2.2A36.79,36.79,0,0,0,700.27,157c.07.09.14.19.22.28a8.45,8.45,0,0,0,3.7,2A58.33,58.33,0,0,0,715.34,162a64.07,64.07,0,0,0,11.07.69c3.5-.1,7.19-.33,10.44-1.68a12.5,12.5,0,0,0,5.84-5c.22.24.45.48.69.71a23,23,0,0,0,7.86,4.31,37.4,37.4,0,0,0,18.68,1.6,23.73,23.73,0,0,0,9.54-3.48A8.06,8.06,0,0,0,785.74,163.86Zm36.42-37-.36,3.61c-.24,2.52-.49,5-.74,7.55s-.47,4.81-.71,7.21c-.22,2.2-.11,4.71-.79,6.83-.08.28-.24.53-.34.79a.3.3,0,0,1-.22.22,2.89,2.89,0,0,1-.56-1.39,37.53,37.53,0,0,1-.69-6.85c-.27-5-.18-9.91-.08-14.87a2.18,2.18,0,0,0-.15-.87,9,9,0,0,0,3.18-1.19,5.85,5.85,0,0,0,1.49-1.4Zm-156.47-9.66c4.9-1.25,10.25-1.08,15.28-1.18,21.86-.45,43.69,1.06,65.5,2.31,12.25.7,24.5,1.31,36.78,1.45,6.11.07,12.23,0,18.35,0l9.17,0c1.28,0,2.59-.07,3.86,0,.34,0,1.56.29,2,.33a2.26,2.26,0,0,0,1.8,2.5s-.15-.49,0,0a1.28,1.28,0,0,1-.06.67c-.27.69-1.2.89-1.87,1-2.34.49-5,.15-7.37.13l-16.22-.12-33.28-.26q-33.11-.25-66.23-.55l-16.16-.18-8.5-.12a46.64,46.64,0,0,1-7.29-.23c-1.73-.3-2.83-1.06-1.63-2.67S663.66,117.76,665.69,117.24Zm-7.76,31.81c-.3-.09-.34,0-.35,0a1.15,1.15,0,0,0-.13-.39c-.5-1.14-.36-2.8-.46-4-.12-1.43-.21-2.86-.26-4.29a101.65,101.65,0,0,1,.4-13.74A14,14,0,0,0,662.6,128c2.68,5.18,2,11.2,1.37,16.76-.12,1.07-.25,2.16-.36,3.25a2.35,2.35,0,0,0-.83,1h-2.73A8.35,8.35,0,0,1,657.93,149.05Zm11.81,5.27c-.41-.11-1.37-.35-1.38-.39s.11-1.3.12-1.63c0-1.42.14-2.84.27-4.25.26-2.62.62-5.23.8-7.86a29.52,29.52,0,0,0-1.39-12l15.87.21,15.09.15a2.49,2.49,0,0,0-.31,1.13c-.21,7.43-.15,14.88.28,22.31a30.76,30.76,0,0,1-13.3,4.45C680.29,156.86,675,155.67,669.74,154.32Zm62.11,3a50.75,50.75,0,0,1-17.34-.42,60.28,60.28,0,0,1-8.26-2.12,6.19,6.19,0,0,1-1.81-.68c-.23-.23-.17-1.27-.18-1.44-.09-1.53-.16-3.07-.22-4.6q-.37-9.22-.09-18.44a2.27,2.27,0,0,0-.22-1.08q16.95.15,33.88.28c.66,6,1.24,12,2,18a2.4,2.4,0,0,0-.12,1.32C740.36,153,736.49,156.54,731.85,157.34ZM752,156c-2.06-.82-4.37-1.89-5.73-3.64-1.53-2-1.4-5.05-1.66-7.39q-.9-8.07-1.81-16.13l16.86.13,17.9.14s0,.08,0,.12,0,.1,0,.15a2.07,2.07,0,0,0-.09.58l.58,20.89c0,1,.07,1.91.16,2.86-2.21,3-7.64,4-11,4.32A32.35,32.35,0,0,1,752,156Zm33.17,2.43a4.87,4.87,0,0,1-1.79-3.72,8.37,8.37,0,0,0,.41-.79,1.9,1.9,0,0,0-.6-2.37c-.06-1.81-.09-3.61-.14-5.41L782.55,130s0-.05,0-.07a2.7,2.7,0,0,0,.09-.66s0-.05,0-.08l19.66.16,10.24.07h.09a3.26,3.26,0,0,0-.08.57c-.1,5.49-.21,11,.18,16.48.15,2.1.2,5.15,1.1,7.59a2.14,2.14,0,0,0,0,2.45c.43.7-4.58,1.34-5.12,1.41-2.78.37-5.56.64-8.35.85s-5.58.35-8.38.41C789.85,159.24,787,159.65,785.12,158.47Z" transform="translate(-139.67 -83)"/><path class="cls-24" d="M629.78,227.65c.58-3.14.28-6.5.14-9.68q-.25-5.58-.89-11.14c-.35-3-.39-6.8-1.92-9.48a5.71,5.71,0,0,0-3.16-2.63,5.75,5.75,0,0,0-2.87-5.12c-2.11-1.28-4.9-1.2-7.25-1.44l-16.74-1.65-4.92-.48a7.45,7.45,0,0,0-4,.38,4.23,4.23,0,0,0-2.35,4.39,4.69,4.69,0,0,0-1.15,1.08c-4,1.44-3.86,6.79-3.85,10.73,0,6.12.08,12.24.1,18.36,0,12.51-.37,25-1,37.5-1.32,25.19-3.38,50.39-2.74,75.64.13,5.37,0,11.14,1.71,16.3,1.14,3.5,3.53,7.71,7.14,8.67a2.67,2.67,0,0,0,2.34,1.81,100.76,100.76,0,0,0,25.44.34c1.8-.21,3.55-.5,4.85-1.93s1.31-3.71,1.31-5.69c0-1.13.1-2.37,0-3.57,3.14-.2,4.28-2,5-5,1.51-5.88,2.83-11.91,2.21-18a36.81,36.81,0,0,0-4.25-13.87,3.15,3.15,0,0,0,.29-.22,8.72,8.72,0,0,0,2-3.7A59,59,0,0,0,627.94,298a64.9,64.9,0,0,0,.69-11.06c-.1-3.51-.33-7.2-1.68-10.45a12.52,12.52,0,0,0-5-5.83c.24-.22.48-.45.7-.69a22.87,22.87,0,0,0,4.32-7.86,37.28,37.28,0,0,0,1.59-18.68,23.38,23.38,0,0,0-3.48-9.54A8,8,0,0,0,629.78,227.65Zm-36.95-36.42,3.61.35,7.54.75,7.22.71c2.2.22,4.71.11,6.83.78.28.09.52.25.79.35s.2.14.21.21a2.83,2.83,0,0,1-1.38.57,37.53,37.53,0,0,1-6.85.69c-4.95.27-9.92.17-14.87.08a2.18,2.18,0,0,0-.87.15,9.22,9.22,0,0,0-1.19-3.18,5.69,5.69,0,0,0-1.4-1.49ZM583.17,347.7c-1.25-4.91-1.08-10.25-1.19-15.28-.45-21.86,1.07-43.69,2.32-65.5.7-12.25,1.31-24.51,1.45-36.78.07-6.12,0-12.23,0-18.35,0-3.06-.05-6.12-.05-9.18,0-1.27-.07-2.58,0-3.85,0-.35.3-1.56.34-1.95a2.26,2.26,0,0,0,2.5-1.8s-.5.15,0,0a1.28,1.28,0,0,1,.67.06c.69.27.89,1.2,1,1.87.5,2.34.16,5,.14,7.37l-.12,16.21q-.13,16.65-.26,33.29-.25,33.11-.55,66.22-.09,8.08-.19,16.16c0,2.84-.07,5.67-.11,8.51A46.64,46.64,0,0,1,589,352c-.31,1.72-1.06,2.83-2.68,1.63S583.69,349.73,583.17,347.7ZM615,355.46c-.1.3,0,.34,0,.34a1.55,1.55,0,0,0-.38.14,13.86,13.86,0,0,1-4,.46c-1.42.12-2.85.21-4.29.26a99.9,99.9,0,0,1-13.73-.41,13.88,13.88,0,0,0,1.37-5.46c5.18-2.68,11.2-2,16.76-1.37l3.25.36a2.3,2.3,0,0,0,1,.83c0,.18,0,.36,0,.55v2.17A8.43,8.43,0,0,1,615,355.46Zm5.27-11.81c-.11.41-.36,1.37-.39,1.38s-1.3-.11-1.63-.12c-1.42,0-2.84-.14-4.25-.27-2.62-.26-5.23-.62-7.86-.8a29.5,29.5,0,0,0-12,1.39q.12-7.94.21-15.87c.06-5,.1-10.06.15-15.09a2.49,2.49,0,0,0,1.13.3c7.43.22,14.88.15,22.31-.27a30.76,30.76,0,0,1,4.45,13.3C622.79,333.09,621.6,338.38,620.25,343.65Zm3-62.11a50.76,50.76,0,0,1-.43,17.34,60.25,60.25,0,0,1-2.11,8.26,6.19,6.19,0,0,1-.68,1.81c-.24.22-1.27.17-1.44.18-1.53.09-3.07.16-4.6.22q-9.22.38-18.44.09a2.34,2.34,0,0,0-1.09.22q.16-16.95.29-33.88c6-.66,12-1.24,18-2a2.4,2.4,0,0,0,1.32.12C618.9,273,622.47,276.9,623.27,281.54Zm-1.3-20.1c-.82,2.06-1.89,4.37-3.64,5.72-2,1.54-5.05,1.41-7.39,1.67l-16.13,1.81q.06-8.43.13-16.86.07-9,.14-17.9h.27a2.07,2.07,0,0,0,.58.09l20.89-.58c.94,0,1.91-.07,2.86-.16,3,2.21,4,7.64,4.32,11A32.37,32.37,0,0,1,622,261.44Zm2.43-33.17c-.79,1.23-2.32,1.62-3.72,1.79-.27-.13-.51-.3-.79-.41a1.9,1.9,0,0,0-2.37.59c-1.81.07-3.61.1-5.42.15l-16.17.45h-.07a2.77,2.77,0,0,0-.66-.09h-.08l.15-19.66q0-5.13.08-10.24v-.09a2.63,2.63,0,0,0,.58.07c5.49.11,11,.22,16.48-.17,2.1-.15,5.14-.21,7.59-1.1a2.14,2.14,0,0,0,2.45,0c.69-.43,1.33,4.58,1.41,5.12.36,2.77.64,5.56.85,8.35s.35,5.58.41,8.38C625.16,223.54,625.58,226.43,624.4,228.27Z" transform="translate(-139.67 -83)"/><image width="514" height="268" transform="translate(163.69 337.64) scale(0.47)" xlink:href="CarUpveiw.png"/></svg>